<?xml version="1.0" encoding="utf-8"?>
<!-- Generator: Adobe Illustrator 19.1.0, SVG Export Plug-In . SVG Version: 6.00 Build 0)  -->
<svg version="1.1" id="Слой_1" xmlns="http://www.w3.org/2000/svg" xmlns:xlink="http://www.w3.org/1999/xlink" x="0px" y="0px"
	 viewBox="0 0 274.2 277" style="enable-background:new 0 0 274.2 277;" xml:space="preserve">
<style type="text/css">
	.st0{fill:#E0884A;}
	.st1{fill:#D24A4A;}
	.st2{fill:url(#SVGID_1_);}
	.st3{fill:url(#SVGID_2_);}
	.st4{fill:#52A361;}
	.st5{fill:url(#SVGID_3_);}
	.st6{fill:url(#SVGID_4_);}
	.st7{fill:url(#SVGID_5_);}
	.st8{fill:url(#SVGID_6_);}
	.st9{fill:url(#SVGID_7_);}
	.st10{fill:#4E5590;}
	.st11{fill:url(#SVGID_8_);}
	.st12{fill:url(#SVGID_9_);}
</style>
<g id="Layer_x0020_1">
	<path class="st0" d="M222.6,135.8l-25.9-26.3c8.1-5.7,10.4-19.7,6.9-26.2c-1.7-3.3-6.9-8.8-10.2-11.1c-5.8-4-18.6-4-25.2,2.7
		l-61.1,60.6l-25.8-25.9l62.1-61.9C156,35.2,178.2,30,198.9,36.5c2-9.7,6.2-15.6,11.4-20.3c17.1-15.6,42.3-8.6,52.7,5
		c8.9,11.7,9.2,27.9,1.7,40.8c-4.8,8.3-13.5,14.1-25.2,16.2c5.7,22.4-0.6,41.8-16.8,57.7H222.6z"/>
	<path class="st1" d="M138.6,225.5l26.7-26.2c7.2,7.2,19.6,6.5,25.5,2.7c3.1-2,5.7-5.5,8.1-8.5c4.4-5.5,3.1-20-3.5-26.7L138.8,110
		l25.8-26.2l63,62.6c10.9,10.8,18.6,34.6,12.8,53.1c9.7,1.9,16.1,6.2,20.9,11.3c15.7,17,9,42.8-4.7,53.3c-11.6,9-27.7,8.9-40.6,1.5
		c-8.3-4.7-14.8-11.3-16.8-23C176.8,248.6,154.1,242.6,138.6,225.5z"/>
	
		<linearGradient id="SVGID_1_" gradientUnits="userSpaceOnUse" x1="32421.709" y1="-19023.8223" x2="32472.9102" y2="-20356.4844" gradientTransform="matrix(7.199853e-002 0 0 -7.199853e-002 -2133.4248 -1272.1475)">
		<stop  offset="0" style="stop-color:#D24A4A"/>
		<stop  offset="1" style="stop-color:#F7E3E4"/>
	</linearGradient>
	<path class="st2" d="M231,193.1c10.6-11.3,10.6-26.2-5.2-42.3l-52.1-52.9l-6.9,6.9l49.8,52.4C231.9,173.3,234.1,177.6,231,193.1
		L231,193.1z"/>
	
		<linearGradient id="SVGID_2_" gradientUnits="userSpaceOnUse" x1="32988.543" y1="-20981.8535" x2="32988.543" y2="-20586.1035" gradientTransform="matrix(7.199853e-002 0 0 -7.199853e-002 -2133.4248 -1272.1475)">
		<stop  offset="0" style="stop-color:#D24A4A"/>
		<stop  offset="1" style="stop-color:#F7E3E4"/>
	</linearGradient>
	<path class="st3" d="M241.7,210c11,0,19.9,6.4,19.9,14.3c0,7.8-8.9,14.3-19.9,14.3c-11,0-19.9-6.4-19.9-14.3
		C221.8,216.4,230.7,210,241.7,210z"/>
	<path class="st4" d="M133,52l-26.1,26.1c-5.7-8.1-20-10.6-26.6-7.2c-3.4,1.7-8.7,6.8-11,10.1c-4.1,5.7-3.8,18.8,2.9,25.5l60.5,60.7
		l-26,26L44.7,131c-12.5-12.5-17.9-35-11.4-55.7c-9.7-2-15.3-6-20-11.2C-2.4,47,3.4,22.3,17.1,11.9c6.6-5,15.3-8.4,23.7-8
		C47.2,4.2,54,6.8,59.6,10c8.3,4.8,13.4,13.4,15.4,25.1C97.5,29.4,117.2,35.8,133,52z"/>
	
		<linearGradient id="SVGID_3_" gradientUnits="userSpaceOnUse" x1="30199.1836" y1="-18322.8574" x2="30199.1836" y2="-17816.457" gradientTransform="matrix(7.199853e-002 0 0 -7.199853e-002 -2133.4248 -1272.1475)">
		<stop  offset="0" style="stop-color:#52A361"/>
		<stop  offset="1" style="stop-color:#C2DDD7"/>
	</linearGradient>
	<path class="st5" d="M40.9,10.6c14.1,0,25.5,8.2,25.5,18.3S54.9,47.2,40.9,47.2S15.4,39,15.4,28.9S26.8,10.6,40.9,10.6z"/>
	
		<linearGradient id="SVGID_4_" gradientUnits="userSpaceOnUse" x1="31012.666" y1="-18458.8691" x2="31012.666" y2="-18131.041" gradientTransform="matrix(7.199853e-002 0 0 -7.199853e-002 -2133.4248 -1272.1475)">
		<stop  offset="0" style="stop-color:#52A361"/>
		<stop  offset="1" style="stop-color:#C2DDD7"/>
	</linearGradient>
	<path class="st6" d="M71.7,40.2c19.9-6.9,38.5-2.9,55.6,11.9l-5,4.8C106.9,41.6,89.9,36.6,71.7,40.2z"/>
	
		<linearGradient id="SVGID_5_" gradientUnits="userSpaceOnUse" x1="30907.5469" y1="-20083.3887" x2="30907.5469" y2="-18815.0566" gradientTransform="matrix(7.199853e-002 0 0 -7.199853e-002 -2133.4248 -1272.1475)">
		<stop  offset="0" style="stop-color:#52A361"/>
		<stop  offset="1" style="stop-color:#C2DDD7"/>
	</linearGradient>
	<path class="st7" d="M63.9,82.5c-10.6,11.3-8.7,27.2,7.3,43.1l48.4,48.2l6.9-6.9l-47.2-47.2C63.5,104,60.3,97.1,63.9,82.5
		L63.9,82.5z"/>
	
		<linearGradient id="SVGID_6_" gradientUnits="userSpaceOnUse" x1="32890.3789" y1="-17797.4746" x2="32890.3789" y2="-18303.875" gradientTransform="matrix(7.199853e-002 0 0 -7.199853e-002 -2133.4248 -1272.1475)">
		<stop  offset="0" style="stop-color:#F8E3D6"/>
		<stop  offset="1" style="stop-color:#E0884A"/>
	</linearGradient>
	<path class="st8" d="M234.6,9.2c14.1,0,25.5,8.2,25.5,18.3s-11.4,18.3-25.5,18.3s-25.5-8.2-25.5-18.3S220.6,9.2,234.6,9.2z"/>
	
		<linearGradient id="SVGID_7_" gradientUnits="userSpaceOnUse" x1="32295.5762" y1="-18680.2637" x2="30994.1992" y2="-18680.2637" gradientTransform="matrix(7.199853e-002 0 0 -7.199853e-002 -2133.4248 -1272.1475)">
		<stop  offset="0" style="stop-color:#F8E3D6"/>
		<stop  offset="1" style="stop-color:#E0884A"/>
	</linearGradient>
	<path class="st9" d="M191.8,45.3c-5-5-11.4-6.9-16.9-7.2c-8.4-0.4-16.9,4.1-27.2,14.1l-49.5,48.1l6.9,7.3L153.2,61
		C169.6,45.1,177,40.9,191.8,45.3z"/>
	<path class="st10" d="M49.2,141.5l26.2,26c-6.9,9-6.7,19.8-3.3,25.1c2,3.1,6.9,7.1,9.9,9.6c5.1,4.1,18.8,3.4,27.6-5.6l54.7-55.1
		l26.3,26.2l-62.9,62.7c-12.2,12.1-35.5,18.1-52.4,12.9c-2,9.7-6.5,16.8-11.9,21.1c-16.5,13.4-36.4,10.1-47.8-0.3
		C4.4,253.9-0.8,233.3,9,218.5c5.2-7.9,12.6-14.1,23.4-16.4C25.2,177.7,33,157.4,49.2,141.5L49.2,141.5z"/>
	
		<linearGradient id="SVGID_8_" gradientUnits="userSpaceOnUse" x1="30071.748" y1="-20984.4609" x2="30114.7441" y2="-20576.0273" gradientTransform="matrix(7.199853e-002 0 0 -7.199853e-002 -2133.4248 -1272.1475)">
		<stop  offset="0" style="stop-color:#4E5590"/>
		<stop  offset="1" style="stop-color:#DCDCEA"/>
	</linearGradient>
	<path class="st11" d="M33.2,209.6c11.1,0,20.1,6.4,20.1,14.4c0,8-9,14.4-20.1,14.4c-11.1,0-20.1-6.4-20.1-14.4
		C13.2,216,22.2,209.6,33.2,209.6z"/>
	
		<linearGradient id="SVGID_9_" gradientUnits="userSpaceOnUse" x1="32017.6113" y1="-20221.8496" x2="30720.123" y2="-20221.8496" gradientTransform="matrix(7.199853e-002 0 0 -7.199853e-002 -2133.4248 -1272.1475)">
		<stop  offset="0" style="stop-color:#4E5590"/>
		<stop  offset="1" style="stop-color:#DCDCEA"/>
	</linearGradient>
	<path class="st12" d="M78.4,211.4c5.6,5.7,12.7,7.3,19.1,6.9c7.9-0.4,15.7-5.3,24.7-14.1l49.6-48.1l-6.9-6.9l-48.4,46.4
		C102,209.5,94.5,215.4,78.4,211.4L78.4,211.4z"/>
</g>
</svg>
